<?xml version="1.0" encoding="UTF-8"?>
<svg xmlns="http://www.w3.org/2000/svg" viewBox="0 0 704 1527" width="352" height="200">
  <defs>
    <filter id="glow">
      <feGaussianBlur stdDeviation="3" result="blur"/>
      <feMerge>
        <feMergeNode in="blur"/>
        <feMergeNode in="SourceGraphic"/>
      </feMerge>
    </filter>
  </defs>
  <rect width="704" height="1527" fill="#0d0d0d"/>
  <path d="M0 0 C1.1859375 0.00257813 2.371875 0.00515625 3.59375 0.0078125 C4.7796875 0.00523437 5.965625 0.00265625 7.1875 0 C10.09375 0.1328125 10.09375 0.1328125 11.09375 1.1328125 C11.36445899 4.77234446 11.54020517 8.40524774 11.69921875 12.05078125 C11.52074095 15.90754343 11.52074095 15.90754343 13.09375 19.1328125 C15.95466818 19.22803668 18.79138621 19.25834576 21.65258789 19.24633789 C22.99879967 19.24655693 22.99879967 19.24655693 24.37220764 19.2467804 C27.35363134 19.24608092 30.3349934 19.23828691 33.31640625 19.23046875 C35.37763942 19.22860469 37.43887304 19.22718073 39.50010681 19.22618103 C44.9367901 19.22235487 50.37344686 19.21252376 55.81011963 19.20147705 C61.35322714 19.19126503 66.89633892 19.18668386 72.43945312 19.18164062 C83.32423231 19.17090158 94.2089848 19.15330399 105.09375 19.1328125 C105.42375 12.8628125 105.75375 6.5928125 106.09375 0.1328125 C110.71375 0.1328125 115.33375 0.1328125 120.09375 0.1328125 C120.16806567 6.28919858 120.22243084 12.44532185 120.25854492 18.60205078 C120.27360469 20.69519603 120.29405671 22.78830986 120.32006836 24.88134766 C120.35657501 27.89493578 120.37350473 30.90810562 120.38671875 33.921875 C120.40220261 34.85335358 120.41768646 35.78483215 120.43363953 36.74453735 C120.43520276 42.81869505 119.51215687 46.90827 115.78125 51.8828125 C110.31899476 55.92892749 103.78936921 55.41183002 97.33081055 55.37573242 C96.25864792 55.37763077 95.18648529 55.37952911 94.08183289 55.38148499 C90.54796982 55.38518149 87.01431346 55.37450727 83.48046875 55.36328125 C76.11470032 55.3618927 70.97609593 55.36032996 65.83756142 55.3520538 C60.69897461 55.33862305 54.09651921 55.3215888 47.49414026 55.31781008 C40.89166546 55.31856823 35.82610844 55.31829706 25.69501686 55.30556679 C14.99496537 55.29751744 8.2097168 55.27807617 5.13226318 55.27944946 C2.34965515 55.26652527 0.74472891 55.26317358 -0.08205128 55.26144695 C-1.90625 55.1328125 -2.90625 54.1328125 -2.96875 49.0703125 C-2.94140625 46.28515625 -2.90625 44.1328125 1.05976868 44.11503601 C13.37637003 44.05789517 38.00921345 43.89709759 57.0065918 43.78637695 C75.33000755 43.66962624 92.11450195 43.56518555 97.7467804 43.53153992 C102.69508696 43.01764342 105.09375 40.1328125 105.78125 35.4453125 C106.09375 31.1328125 102.45835876 31.15299988 68.51474667 31.28824902 C51.06469727 31.35913086 34.21954536 31.41744423 18.79272461 31.47338867 C6.9096629 30.7119202 2.09375 28.1328125 -4.13085938 11.69921875 C-4.09375 9.3828125 -4.09179688 7.01953125 0 0 Z" fill="white" filter="url(#glow)" transform="translate(304.90625,732.8671875)"/>
  <path d="M0 0 C103.05775416 0.17218013 106.72427368 2.13371277 108.72427368 55.13371277 C95.72427368 55.13371277 94.72427368 54.13371277 93.72427368 12.13371277 C64.35427368 12.13371277 34.98427368 12.13371277 4.72427368 12.13371277 C3.72427368 47.13371277 0.72427368 53.13371277 -14.25619507 55.30168152 C-17.27572632 55.13371277 -18.27572632 54.13371277 -18.27572632 45.13371277 C-12.27572632 43.13371277 -11.98275757 15.59465027 -6.27572632 1.13371277 C-3.9464057 -0.03094754 0 0 0 0 Z" fill="white" filter="url(#glow)" transform="translate(180.27572631835938,732.8662872314453)"/>
  <path d="M0 0 C9.24 0 14 0 15 19 C45.69 19.33 76.38 19.66 108 20 C108 1 109 0 122 0 C122 55 117.71 55 109 55 C108 54 107.9375 42.4375 108 31 C70.47280884 31.25906086 36.22067261 31.47438622 18.15110779 31.62210083 C3 26 -0.1875 9.625 0 0 Z" fill="white" filter="url(#glow)" transform="translate(437,733)"/>
  <path d="M0 0 C161 0 161 4 0 4 Z" fill="white" filter="url(#glow)" transform="translate(0,763)"/>
</svg>
